#!OML:ASF X:\für Bonn\!DataBase\2005_08_11_Bastian_Final\c3d\Bastian.ASF
:FULLY-SPECIFIED
:DEGREES
47
root 1.78608 10.7843 0.871936 172.552 -3.99905 -172.305
lowerback 27.7884 -2.06317 4.91366
upperback 3.31346 -1.86532 2.63265
thorax -11.7445 -1.42634 0.94201
lowerneck -14.3486 -7.63373 -5.12909
upperneck -5.67793 -8.54723 9.43242
head 1.36569 -3.58762 3.50386
rclavicle -1.28713e-014 5.76476e-015
rhumerus 75.3268 1.62932 -12.9207
rradius 43.352
rwrist -47.8654
rhand -39.9767 -0.645291
rfingers 7.12502
rthumb -12.9454 -30.2237
lclavicle -1.28713e-014 5.76476e-015
lhumerus 57.2572 -1.14456 8.21196
lradius 44.7186
lwrist 2.07649
lhand -45.1831 5.77269
lfingers 7.12502
lthumb -17.9598 34.9634
rfemur -55.1131 -7.0647 35.5552
rtibia 119.175
rfoot -46.4773 -19.0012
rtoes -5.76142
lfemur -56.781 18.4101 -8.97792
ltibia 123.361
lfoot -43.2811 -18.8798
ltoes -4.09614
48
root 1.78105 10.5651 0.878947 172.507 -3.86965 -172.28
lowerback 28.3839 -2.00873 4.87502
upperback 3.36164 -1.79751 2.65541
thorax -11.994 -1.40715 0.99235
lowerneck -14.5099 -7.64593 -5.08672
upperneck -5.9198 -8.50919 9.54422
head 1.31431 -3.54852 3.53657
rclavicle 3.37313e-014 2.54444e-014
rhumerus 75.5549 1.16183 -13.2074
rradius 43.262
rwrist -47.529
rhand -39.8921 -0.828819
rfingers 7.12502
rthumb -12.8638 -30.4124
lclavicle 3.37313e-014 2.54444e-014
lhumerus 57.163 -0.490123 8.1913
lradius 45.0358
lwrist 1.94422
lhand -45.321 5.76725
lfingers 7.12502
lthumb -18.0925 34.9458
rfemur -56.3001 -7.06599 35.8571
rtibia 121.217
rfoot -46.9688 -19.2811
rtoes -5.79261
lfemur -57.9732 20.0511 -8.81465
ltibia 125.439
lfoot -43.6643 -19.7769
ltoes -3.66029
49
root 1.77505 10.3485 0.886118 172.481 -3.7369 -172.282
lowerback 28.9048 -1.94969 4.84502
upperback 3.42022 -1.72859 2.65253
thorax -12.1923 -1.38751 1.00316
lowerneck -14.6086 -7.67605 -5.06843
upperneck -6.19855 -8.49041 9.68645
head 1.24436 -3.51971 3.58485
rclavicle 9.6659e-015 -2.95195e-014
rhumerus 75.741 0.742937 -13.4858
rradius 43.1491
rwrist -47.2025
rhand -39.8315 -0.960253
rfingers 7.12502
rthumb -12.8053 -30.5475
lclavicle 9.6659e-015 -2.95195e-014
lhumerus 57.1084 0.150123 8.27031
lradius 45.271
lwrist 1.52581
lhand -45.4356 5.85054
lfingers 7.12502
lthumb -18.2027 35.0188
rfemur -57.5166 -7.11914 36.1167
rtibia 123.216
rfoot -47.425 -19.5082
rtoes -5.91431
lfemur -59.1722 21.7947 -8.69357
ltibia 127.466
lfoot -43.9839 -20.7385
ltoes -3.06064
50
root 1.76916 10.1344 0.892735 172.438 -3.60122 -172.28
lowerback 29.3684 -1.88241 4.82035
upperback 3.50369 -1.65633 2.65358
thorax -12.3304 -1.36775 1.00989
lowerneck -14.6429 -7.70802 -5.05518
upperneck -6.54707 -8.46627 9.83534
head 1.14017 -3.48914 3.63923
rclavicle -5.62312e-014 6.80837e-014
rhumerus 75.9133 0.281606 -13.5058
rradius 43.0694
rwrist -47.0775
rhand -39.8173 -1.22859
rfingers 7.12502
rthumb -12.7917 -30.8167
lclavicle -5.62312e-014 6.80837e-014
lhumerus 57.0879 0.76789 8.42449
lradius 45.4212
lwrist 0.967691
lhand -45.509 5.92518
lfingers 7.12502
lthumb -18.2734 35.0869
rfemur -58.6932 -7.21579 36.3735
rtibia 125.172
rfoot -47.8682 -19.6087
rtoes -5.8006
lfemur -60.349 23.7074 -8.55655
ltibia 129.448
lfoot -44.2472 -21.7611
ltoes -2.28472
51
root 1.76189 9.92176 0.899083 172.386 -3.45221 -172.301
lowerback 29.9385 -1.83122 4.80959
upperback 3.1867 -1.58866 2.68111
thorax -12.1616 -1.3706 0.964127
lowerneck -14.7516 -7.73598 -5.06363
upperneck -6.83935 -8.4347 9.97445
head 1.06761 -3.4523 3.69271
rclavicle 1.86112e-014 -1.13307e-014
rhumerus 76.1374 -0.208502 -13.3885
rradius 42.9662
rwrist -47.1188
rhand -39.8061 -1.45236
rfingers 7.12502
rthumb -12.7808 -31.0411
lclavicle 1.86112e-014 -1.13307e-014
lhumerus 57.0184 1.35111 8.68898
lradius 45.5183
lwrist 0.182835
lhand -45.5859 6.0154
lfingers 7.12502
lthumb -18.3474 35.1701
rfemur -59.8644 -7.37766 36.589
rtibia 127.103
rfoot -48.3012 -19.606
rtoes -5.84811
lfemur -61.5078 25.7592 -8.45369
ltibia 131.386
lfoot -44.4747 -22.8304
ltoes -1.43966
